name C:\Users\r0593348\3dpredictsim\Results\Batchsim_tmt_linear\Pog_s1_tmt_aCst_d02_k2000_ig24.mot
datacolumns 128
datarows 4
range 1.07418038 1.10640580
endheader
time	pelvis_tilt	pelvis_list	pelvis_rotation	pelvis_tx	pelvis_ty	pelvis_tz	hip_flexion_l	hip_adduction_l	hip_rotation_l	hip_flexion_r	hip_adduction_r	hip_rotation_r	knee_angle_l	knee_angle_r	ankle_angle_l	ankle_angle_r	subtalar_angle_l	subtalar_angle_r	tmt_angle_l	tmt_angle_r	mtp_angle_l	mtp_angle_r	lumbar_extension	lumbar_bending	lumbar_rotation	arm_flex_l	arm_add_l	arm_rot_l	arm_flex_r	arm_add_r	arm_rot_r	elbow_flex_l	elbow_flex_r	pro_sup_l	pro_sup_r	glut_med1_l/activation	glut_med2_l/activation	glut_med3_l/activation	glut_min1_l/activation	glut_min2_l/activation	glut_min3_l/activation	semimem_l/activation	semiten_l/activation	bifemlh_l/activation	bifemsh_l/activation	sar_l/activation	add_long_l/activation	add_brev_l/activation	add_mag1_l/activation	add_mag2_l/activation	add_mag3_l/activation	tfl_l/activation	pect_l/activation	grac_l/activation	glut_max1_l/activation	glut_max2_l/activation	glut_max3_l/activation	iliacus_l/activation	psoas_l/activation	quad_fem_l/activation	gem_l/activation	peri_l/activation	rect_fem_l/activation	vas_med_l/activation	vas_int_l/activation	vas_lat_l/activation	med_gas_l/activation	lat_gas_l/activation	soleus_l/activation	tib_post_l/activation	flex_dig_l/activation	flex_hal_l/activation	tib_ant_l/activation	per_brev_l/activation	per_long_l/activation	per_tert_l/activation	ext_dig_l/activation	ext_hal_l/activation	ercspn_l/activation	intobl_l/activation	extobl_l/activation	glut_med1_r/activation	glut_med2_r/activation	glut_med3_r/activation	glut_min1_r/activation	glut_min2_r/activation	glut_min3_r/activation	semimem_r/activation	semiten_r/activation	bifemlh_r/activation	bifemsh_r/activation	sar_r/activation	add_long_r/activation	add_brev_r/activation	add_mag1_r/activation	add_mag2_r/activation	add_mag3_r/activation	tfl_r/activation	pect_r/activation	grac_r/activation	glut_max1_r/activation	glut_max2_r/activation	glut_max3_r/activation	iliacus_r/activation	psoas_r/activation	quad_fem_r/activation	gem_r/activation	peri_r/activation	rect_fem_r/activation	vas_med_r/activation	vas_int_r/activation	vas_lat_r/activation	med_gas_r/activation	lat_gas_r/activation	soleus_r/activation	tib_post_r/activation	flex_dig_r/activation	flex_hal_r/activation	tib_ant_r/activation	per_brev_r/activation	per_long_r/activation	per_tert_r/activation	ext_dig_r/activation	ext_hal_r/activation	ercspn_r/activation	intobl_r/activation	extobl_r/activation	
          1.07418038	         -2.92802832	         -2.21445906	          5.50287251	          1.34272548	          0.85812687	         -0.00188682	        -18.00057792	         -1.88617049	          6.92445597	         31.44389749	          3.24802825	         -1.80283638	         -7.58338528	        -15.24207668	          0.63173238	          6.59108361	         11.07544492	         -2.87179113	          0.50160465	          0.01957859	         22.07656718	         -0.11439529	         -1.93927467	          0.62239351	         -1.93081167	          7.76260976	        -13.45865873	         17.54393093	         -8.94716700	        -13.53129877	          7.24911832	         35.46246030	         14.31040858	         86.51662706	         86.51662706	          0.28217583	          0.10299954	          0.06952283	          0.31237237	          0.21589360	          0.10810371	          0.05000174	          0.05000023	          0.05000016	          0.07288491	          0.10602529	          0.10614155	          0.06768331	          0.05000205	          0.05000228	          0.05000074	          0.31086601	          0.11361147	          0.05000214	          0.05000151	          0.05000097	          0.05000098	          0.33700970	          0.57627724	          0.05000027	          0.05000056	          0.05000109	          0.19695650	          0.08704643	          0.06545603	          0.05760634	          0.29762101	          0.40350712	          0.28213085	          0.25964436	          0.26670874	          0.34450836	          0.05000003	          0.05895184	          0.16481056	          0.05000023	          0.05000006	          0.05000019	          0.05000010	          0.05000006	          0.05000005	          0.05248937	          0.05000318	          0.05000016	          0.05895153	          0.05895146	          0.05000187	          0.05895107	          0.05000110	          0.20024487	          0.05000035	          0.05000236	          0.12290980	          0.28838809	          0.13036780	          0.12078771	          0.09589478	          0.05000015	          0.08195564	          0.07342151	          0.05000036	          0.14649630	          0.15131115	          0.05895174	          0.05000133	          0.16691486	          0.25957890	          0.14184154	          0.06304809	          0.15768659	          0.15428505	          0.13552611	          0.05000398	          0.05029305	          0.05481718	          0.05000001	          0.05000046	          0.05000040	          0.58364043	          0.35881283	          0.20124310	          0.39481029	          0.57470604	          0.30648268	          0.06627465	          0.09622602	          0.10230935	
          1.08492219	         -2.92091229	         -2.30431072	          5.78075573	          1.35892144	          0.85704805	         -0.00168481	        -17.78837683	         -2.17680582	          6.69818580	         30.78673023	          3.59202349	         -1.54796378	         -9.65423923	        -15.40713515	         -0.22030372	          5.97487726	         12.00005878	         -3.33372189	          0.47208580	          0.00692200	         23.03895929	         -0.07068314	         -1.73997182	          0.84389081	         -2.00031325	          7.57286653	        -13.46952141	         17.73414603	         -9.98146788	        -13.52543409	          7.11186192	         36.54569065	         14.21431668	         86.51662706	         86.51662706	          0.23932885	          0.08735958	          0.05896619	          0.26494026	          0.18311127	          0.09168874	          0.05001392	          0.05000113	          0.05000404	          0.06181772	          0.08992607	          0.19249617	          0.14931823	          0.06950569	          0.05895714	          0.05895339	          0.26366268	          0.09636257	          0.05001067	          0.05005424	          0.05019583	          0.05895178	          0.28583647	          0.52898868	          0.05895166	          0.05895274	          0.05895138	          0.16704966	          0.11486559	          0.15835748	          0.15713344	          0.25242869	          0.34223652	          0.23929064	          0.22021877	          0.22621077	          0.29219673	          0.05000003	          0.05000039	          0.14556542	          0.05000011	          0.05000003	          0.05000017	          0.05675450	          0.06218017	          0.05332578	          0.05000002	          0.05000008	          0.11293150	          0.05000008	          0.05000009	          0.05000016	          0.05000008	          0.05000022	          0.16983870	          0.05000014	          0.05000085	          0.10424670	          0.24459798	          0.32675010	          0.20869321	          0.11830225	          0.05000223	          0.06951282	          0.08497370	          0.08079708	          0.12425217	          0.12833542	          0.05000032	          0.05895657	          0.38933434	          0.22016314	          0.12030365	          0.06950531	          0.17949424	          0.19331929	          0.15979070	          0.05000063	          0.05908197	          0.05000004	          0.06493756	          0.06950606	          0.06950526	          0.49501749	          0.40343493	          0.23585279	          0.33486053	          0.52255273	          0.25994483	          0.05621117	          0.08161457	          0.08677417	
          1.09566399	         -2.91004792	         -2.39437746	          6.03013192	          1.37535927	          0.85596483	         -0.00149422	        -17.48874180	         -2.45644480	          6.45977758	         29.96361902	          3.87403534	         -1.27153799	        -11.87014863	        -15.83011462	         -1.23494217	          5.54126054	         12.85583424	         -3.81241952	          0.43811921	         -0.00467230	         23.82380224	         -0.18596547	         -1.52254733	          1.07178442	         -2.05895872	          7.30021454	        -13.48040663	         17.84902102	        -11.01581018	        -13.52447111	          7.02911479	         37.60341483	         14.14784702	         86.51662706	         86.51662706	          0.34362967	          0.07409448	          0.05001251	          0.35952653	          0.15530684	          0.07776631	          0.05122891	          0.05000031	          0.05000024	          0.05243116	          0.07627308	          0.16326666	          0.12664514	          0.05895171	          0.05000513	          0.05000179	          0.25648481	          0.08173809	          0.05000146	          0.05000218	          0.05000127	          0.05000107	          0.24243378	          0.49369664	          0.05000033	          0.05000153	          0.05000036	          0.14168400	          0.09742389	          0.13431173	          0.13327356	          0.21409861	          0.29026956	          0.20295551	          0.18677965	          0.19186192	          0.24782819	          0.05000004	          0.10216886	          0.18633884	          0.05000018	          0.05000020	          0.05000027	          0.06074925	          0.05273841	          0.05000007	          0.25624610	          0.25878025	          0.32018668	          0.34980183	          0.22388464	          0.19192465	          0.07844249	          0.05021082	          0.14766883	          0.08195009	          0.05895159	          0.08841741	          0.20745703	          0.27713480	          0.17700433	          0.10273159	          0.05000052	          0.05896275	          0.07207169	          0.17477289	          0.15972707	          0.10884848	          0.05565400	          0.05000451	          0.33021592	          0.18673262	          0.24325261	          0.05895129	          0.15223898	          0.16396479	          0.13552732	          0.05000088	          0.05011081	          0.05443577	          0.05507715	          0.05895217	          0.05895170	          0.58274888	          0.42369370	          0.21395596	          0.45105489	          0.61114638	          0.31706849	          0.06712427	          0.09922117	          0.07359794	
          1.10640580	         -2.89738904	         -2.47468593	          6.24420834	          1.39183104	          0.85490832	         -0.00128063	        -17.08273707	         -2.71793297	          6.22585623	         29.06618120	          4.13974507	         -0.99856734	        -14.23598444	        -16.19688481	         -2.38454755	          5.19961366	         13.65424991	         -4.31230537	          0.38847832	         -0.00827563	         24.33517385	         -0.19232328	         -1.30876730	          1.29467950	         -2.10771837	          6.98052631	        -13.49794772	         17.91227980	        -11.99881313	        -13.52348013	          7.01040704	         38.61162760	         14.07832238	         86.51662706	         86.51662706	          0.29145131	          0.06284362	          0.05000008	          0.30493439	          0.13172432	          0.06595793	          0.06969694	          0.05000025	          0.05000025	          0.05000013	          0.06469164	          0.18845040	          0.14621411	          0.05000133	          0.05000863	          0.05285331	          0.21753940	          0.06933413	          0.05000071	          0.05000260	          0.05000184	          0.05000136	          0.20562142	          0.44346400	          0.05000018	          0.05000064	          0.05000017	          0.12016999	          0.11391839	          0.11391847	          0.11391835	          0.18158876	          0.24619353	          0.17213769	          0.15841811	          0.16272877	          0.21019679	          0.09984156	          0.15513361	          0.15853622	          0.05000183	          0.17056356	          0.05000139	          0.09556713	          0.05000002	          0.05000005	          0.35309909	          0.37493421	          0.42590178	          0.29668664	          0.18989026	          0.26805517	          0.07447968	          0.11393476	          0.12524614	          0.06950664	          0.05000075	          0.07499173	          0.17595581	          0.23505493	          0.21725610	          0.16155240	          0.05000035	          0.05008063	          0.12575367	          0.25509194	          0.20320271	          0.16071008	          0.05000016	          0.05000015	          0.28007434	          0.15837830	          0.23842506	          0.05000005	          0.17814275	          0.22482944	          0.17025275	          0.05000002	          0.05000004	          0.05000000	          0.05000000	          0.05000067	          0.05000028	          0.64781233	          0.35935803	          0.18146788	          0.68012107	          0.62877302	          0.40787371	          0.08511889	          0.08415492	          0.06242245	
